<svg width="4193" height="282" viewBox="0 0 4193 282" fill="none" xmlns="http://www.w3.org/2000/svg">
<path d="M0 41.2614L100.166 78.3121C200.332 74.0886 342.016 68.189 600.065 29.858C799.931 35.7708 978.323 104.037 1178.19 103.615C1377.59 102.77 1598 32.8144 1797.4 23.5227C1997.27 14.6534 2241.07 99.8214 2440.94 98.5543C2640.34 97.2873 2981.6 37.4602 3181 29.858C3396.68 29.8579 3393.07 70.2874 3592.94 78.3121C3792.34 85.9143 3992.67 -11.5321 4092.83 1.1383L4193 49.7084V282H4092.83C3992.67 282 3792.34 282 3592.94 282C3393.07 282 3194.6 282 2994.73 282C2795.33 282 2595 282 2395.6 282C2195.73 282 1997.27 282 1797.4 282C1598 282 1397.67 282 1198.27 282C998.4 282 799.931 282 600.065 282C400.665 282 200.332 282 100.166 282H0V41.2614Z" fill="#FF0066"/>
</svg>
