<svg width="4193" height="198" viewBox="0 0 4193 198" fill="none" xmlns="http://www.w3.org/2000/svg">
<path d="M0 0L100.166 42.7497C219.853 42.7497 400.665 60.87 600.065 69.1703C799.931 77.5875 962.231 87.7583 1162.1 78.4059C1361.5 69.0534 1598 35.365 1797.4 28C1997.27 20.5181 2288.42 58.5319 2488.29 69.1703C2691.23 69.1703 2795.33 74.1972 2994.73 69.1703C3194.6 64.0265 3414.66 21.2464 3614.53 23C3813.93 24.7536 3992.67 78.289 4092.83 91.6162H4193V198H4092.83C3992.67 198 3792.34 198 3592.93 198C3393.07 198 3194.6 198 2994.73 198C2795.33 198 2595 198 2395.6 198C2195.73 198 1997.27 198 1797.4 198C1598 198 1397.67 198 1198.27 198C998.4 198 799.931 198 600.065 198C400.665 198 200.332 198 100.166 198H0V0Z" fill="#F41580"/>
</svg>
