<svg width="48" height="46" viewBox="0 0 48 46" fill="none" xmlns="http://www.w3.org/2000/svg">
<path fill-rule="evenodd" clip-rule="evenodd" d="M24 0C10.7422 0 0 10.5546 0 23.581C0 33.9975 6.875 42.8404 16.4141 45.9569C17.6172 46.1718 18.0547 45.4502 18.0547 44.8208C18.0547 44.2604 18.0312 42.7789 18.0234 40.8139C11.3437 42.2339 9.9375 37.6513 9.9375 37.6513C8.84375 34.9263 7.27344 34.1971 7.27344 34.1971C5.09375 32.7386 7.4375 32.7693 7.4375 32.7693C9.84375 32.9382 11.1094 35.1949 11.1094 35.1949C13.25 38.8027 16.7266 37.7588 18.0937 37.16C18.3125 35.6325 18.9375 34.5962 19.6172 34.0052C14.2891 33.4141 8.6875 31.3876 8.6875 22.3528C8.6875 19.7737 9.625 17.6704 11.1562 16.02C10.9141 15.429 10.0859 13.0264 11.3906 9.77936C11.3906 9.77936 13.4062 9.14992 17.9922 12.1973C19.9062 11.6754 21.9609 11.4144 24 11.4067C26.0391 11.4144 28.0938 11.6754 30.0078 12.1973C34.5938 9.14992 36.6016 9.77936 36.6016 9.77936C37.9141 13.0264 37.0937 15.429 36.8437 16.02C38.3828 17.6704 39.3047 19.7737 39.3047 22.3528C39.3047 31.4106 33.6953 33.3987 28.3516 33.9898C29.2109 34.7114 29.9766 36.1545 29.9766 38.3498C29.9766 41.5047 29.9531 44.0455 29.9531 44.8208C29.9531 45.4502 30.3828 46.1871 31.6016 45.9569C41.1328 42.8327 48 33.9975 48 23.581C48 10.5546 37.2578 0 24 0Z" fill="white"/>
</svg>
