<svg width="3729" height="211" viewBox="0 0 3729 211" fill="none" xmlns="http://www.w3.org/2000/svg">
<path d="M0 18.3936L104.283 38.2872C335.856 75.751 290.919 39.1506 456.56 27.8219C460.37 27.5613 464.347 27.7579 468.114 28.3816C681.872 63.7695 889.475 72.9472 1065.67 72.5686C1243 71.8048 1463.39 35.8382 1640.73 27.4362C1818.48 19.4161 1939.04 64.6665 2116.79 63.5208C2300.81 11.0435 2663.55 79.443 2840.88 72.5686C3032.7 72.5686 2989.25 -6.30719 3167 0.94911C3359 63.5208 3533.92 15.9789 3623 27.4362L3729 0.949071V211H3639.92C3550.84 211 3372.67 211 3195.34 211C3017.59 211 2841.08 211 2663.33 211C2486 211 2307.84 211 2130.5 211C1952.75 211 1776.25 211 1598.5 211C1421.16 211 1243 211 1065.67 211C887.916 211 711.41 211 533.661 211C356.327 211 178.163 211 89.0817 211H0V18.3936Z" fill="#FF0066"/>
<path d="M0 72L34.4933 79.8C68.9865 87.7 137.973 103.3 206.96 104.7C275.946 106 344.933 93 413.919 86.2C482.906 79.3 551.892 78.7 620.879 77.8C689.865 77 758.852 76 828.211 84.3C897.384 92.7 967.116 110.3 1036.29 119.2C1105.65 128 1174.64 128 1243.62 122.8C1312.61 117.7 1381.59 107.3 1450.58 105.3C1519.57 103.3 1588.55 109.7 1657.54 107.3C1726.53 105 1795.51 94 1864.5 95C1933.49 96 2002.47 109 2071.46 107.5C2140.45 106 2209.43 90 2278.42 81.2C2347.41 72.3 2416.39 70.7 2485.38 75.7C2554.37 80.7 2623.35 92.3 2692.71 101C2761.88 109.7 2831.62 115.3 2900.79 115C2970.15 114.7 3039.14 108.3 3108.12 108.3C3177.11 108.3 3246.09 114.7 3315.08 118.3C3384.07 122 3453.05 123 3522.04 117.5C3591.03 112 3660.01 100 3694.51 94L3729 88V211H3694.51C3660.01 211 3591.03 211 3522.04 211C3453.05 211 3384.07 211 3315.08 211C3246.09 211 3177.11 211 3108.12 211C3039.14 211 2970.15 211 2900.79 211C2831.62 211 2761.88 211 2692.71 211C2623.35 211 2554.37 211 2485.38 211C2416.39 211 2347.41 211 2278.42 211C2209.43 211 2140.45 211 2071.46 211C2002.47 211 1933.49 211 1864.5 211C1795.51 211 1726.53 211 1657.54 211C1588.55 211 1519.57 211 1450.58 211C1381.59 211 1312.61 211 1243.62 211C1174.64 211 1105.65 211 1036.29 211C967.116 211 897.384 211 828.211 211C758.852 211 689.865 211 620.879 211C551.892 211 482.906 211 413.919 211C344.933 211 275.946 211 206.96 211C137.973 211 68.9865 211 34.4933 211H0V72Z" fill="#F41580"/>
</svg>
