<svg width="1634" height="535" viewBox="0 0 1634 535" fill="none" xmlns="http://www.w3.org/2000/svg">
<path d="M734 380L764 382.8C794 385.7 854 391.3 914 391.5C974 391.7 1034 386.3 1094 385C1154 383.7 1214 386.3 1274 387.7C1334 389 1394 389 1454 386C1514 383 1574 377 1604 374L1634 371V535H1604C1574 535 1514 535 1454 535C1394 535 1334 535 1274 535C1214 535 1154 535 1094 535C1034 535 974 535 914 535C854 535 794 535 764 535H734V380Z" fill="#212A42" fill-opacity="0.84"/>
<g clip-path="url(#clip0_202_16)">
<path d="M0 9L30 11.8C60 14.7 120 20.3 180 20.5C240 20.7 300 15.3 360 14C420 12.7 480 15.3 540 16.7C600 18 660 18 720 15C780 12 840 6 870 3L900 0V164H870C840 164 780 164 720 164C660 164 600 164 540 164C480 164 420 164 360 164C300 164 240 164 180 164C120 164 60 164 30 164H0V9Z" fill="#212A42" fill-opacity="0.84"/>
</g>
<path d="M734 420.727L764 416.027C794 411.427 854 402.027 914 400.027C1021 420.727 1034 403.427 1094 403.527C1154 403.727 1214 398.727 1274 397.427C1334 396.027 1394 398.427 1454 399.527C1514 400.727 1574 400.727 1604 400.727H1634V528.727H1604C1574 528.727 1514 528.727 1454 528.727C1394 528.727 1334 528.727 1274 528.727C1214 528.727 1154 528.727 1094 528.727C1034 528.727 974 528.727 914 528.727C854 528.727 794 528.727 764 528.727H734V420.727Z" fill="#1F2433" fill-opacity="0.77"/>
<path d="M734 427L764 429.5C794 432 854 437 914 439C974 441 1018 426.3 1078 427C1138 427.6 1214 443.7 1274 441.7C1334 439.7 1394 433.3 1454 433.2C1514 433 1574 439 1604 442L1634 445V498H1604C1574 498 1514 498 1454 498C1394 498 1334 498 1274 498C1214 498 1154 498 1094 498C1034 498 974 498 914 498C854 498 794 498 764 498H734V427Z" fill="#F41580" fill-opacity="0.91"/>
<path d="M734 432H764C794 432 854 432 914 441.244C974 450.487 1034 468.974 1094 477.426C1154 485.613 1214 484.028 1274 476.897C1334 469.767 1394 457.618 1454 452.336C1514 447.054 1574 448.638 1604 449.695L1634 450.487V535H1604C1574 535 1514 535 1454 535C1394 535 1334 535 1274 535C1214 535 1154 535 1094 535C1034 535 974 535 914 535C854 535 794 535 764 535H734V432Z" fill="#FF0066"/>
<defs>
<clipPath id="clip0_202_16">
<rect width="900" height="164" fill="white"/>
</clipPath>
</defs>
</svg>
