<svg width="1449" height="267" viewBox="0 0 1449 267" fill="none" xmlns="http://www.w3.org/2000/svg">
<path d="M0 11.5244L48.207 15.1097C96.414 18.8232 192.828 25.9939 289.242 26.25C385.656 26.5061 482.07 19.5915 578.484 17.9268C674.898 16.2622 771.312 19.5915 867.726 21.3842C964.14 23.0488 1060.55 23.0488 1156.97 19.2073C1253.38 15.3659 1349.8 7.68293 1398 3.84146L1446.21 0V210H1398C1349.8 210 1253.38 210 1156.97 210C1060.55 210 964.14 210 867.726 210C771.312 210 674.898 210 578.484 210C482.07 210 385.656 210 289.242 210C192.828 210 96.414 210 48.207 210H0V11.5244Z" fill="#242A3A" fill-opacity="0.79"/>
<path d="M3.12793 85.7759L51.2307 81.0662C99.3334 76.4566 195.539 67.0371 291.744 65.033C463.311 85.7759 484.155 68.44 580.361 68.5402C676.566 68.7407 772.772 63.7303 868.977 62.4276C965.183 61.0247 1061.39 63.4297 1157.59 64.5319C1253.8 65.7344 1350 65.7344 1398.11 65.7344H1446.21V194H1398.11C1350 194 1253.8 194 1157.59 194C1061.39 194 965.183 194 868.977 194C772.772 194 676.566 194 580.361 194C484.155 194 387.95 194 291.744 194C195.539 194 99.3334 194 51.2307 194H3.12793V85.7759Z" fill="#222839" fill-opacity="0.77"/>
<path d="M0 109.024L48.207 111.523C96.414 114.023 192.828 119.021 289.242 121.02C385.656 123.019 456.36 108.324 552.774 109.024C649.188 109.624 771.312 125.719 867.726 123.719C964.14 121.72 1060.55 115.322 1156.97 115.222C1253.38 115.022 1349.8 121.02 1398 124.019L1446.21 127.018V180H1398C1349.8 180 1253.38 180 1156.97 180C1060.55 180 964.14 180 867.726 180C771.312 180 674.898 180 578.484 180C482.07 180 385.656 180 289.242 180C192.828 180 96.414 180 48.207 180H0V109.024Z" fill="#F41580" fill-opacity="0.91"/>
<path d="M2.79004 93H50.997C99.204 93 195.618 93 292.032 108.615C388.446 124.231 484.86 155.462 581.274 169.739C677.688 183.569 774.102 180.892 870.516 168.846C966.93 156.8 1063.34 136.277 1159.76 127.354C1256.17 118.431 1352.59 121.108 1400.79 122.892L1449 124.231V267H1400.79C1352.59 267 1256.17 267 1159.76 267C1063.34 267 966.93 267 870.516 267C774.102 267 677.688 267 581.274 267C484.86 267 388.446 267 292.032 267C195.618 267 99.204 267 50.997 267H2.79004V93Z" fill="#FF0066"/>
</svg>
