<svg width="2593" height="267" viewBox="0 0 2593 267" fill="none" xmlns="http://www.w3.org/2000/svg">
<path d="M0 11.5244L86.2669 15.1097C172.534 18.8232 345.068 25.9939 517.601 26.25C690.135 26.5061 862.669 19.5915 1035.2 17.9268C1207.74 16.2622 1380.27 19.5915 1552.8 21.3842C1725.34 23.0488 1897.87 23.0488 2070.41 19.2073C2242.94 15.3659 2415.47 7.68293 2501.74 3.84146L2588.01 0V210H2501.74C2415.47 210 2242.94 210 2070.41 210C1897.87 210 1725.34 210 1552.8 210C1380.27 210 1207.74 210 1035.2 210C862.669 210 690.135 210 517.601 210C345.068 210 172.534 210 86.2669 210H0V11.5244Z" fill="#242A3A" fill-opacity="0.79"/>
<path d="M5.59741 85.7759L91.6777 81.0662C177.758 76.4566 349.919 67.0371 522.079 65.033C829.099 85.7759 866.4 68.44 1038.56 68.5402C1210.72 68.7407 1382.88 63.7303 1555.04 62.4276C1727.2 61.0247 1899.36 63.4297 2071.52 64.5319C2243.69 65.7344 2415.85 65.7344 2501.93 65.7344H2588.01V194H2501.93C2415.85 194 2243.69 194 2071.52 194C1899.36 194 1727.2 194 1555.04 194C1382.88 194 1210.72 194 1038.56 194C866.4 194 694.24 194 522.079 194C349.919 194 177.758 194 91.6777 194H5.59741V85.7759Z" fill="#222839" fill-opacity="0.77"/>
<path d="M0 109.024L86.2669 111.523C172.534 114.023 345.068 119.021 517.601 121.02C690.135 123.019 816.66 108.324 989.194 109.024C1161.73 109.624 1380.27 125.719 1552.8 123.719C1725.34 121.72 1897.87 115.322 2070.41 115.222C2242.94 115.022 2415.47 121.02 2501.74 124.019L2588.01 127.018V180H2501.74C2415.47 180 2242.94 180 2070.41 180C1897.87 180 1725.34 180 1552.8 180C1380.27 180 1207.74 180 1035.2 180C862.669 180 690.135 180 517.601 180C345.068 180 172.534 180 86.2669 180H0V109.024Z" fill="#F41580" fill-opacity="0.91"/>
<path d="M4.99292 93H91.2598C177.527 93 350.061 93 522.594 108.615C695.128 124.231 867.662 155.462 1040.2 169.739C1212.73 183.569 1385.26 180.892 1557.8 168.846C1730.33 156.8 1902.86 136.277 2075.4 127.354C2247.93 118.431 2420.47 121.108 2506.73 122.892L2593 124.231V267H2506.73C2420.47 267 2247.93 267 2075.4 267C1902.86 267 1730.33 267 1557.8 267C1385.26 267 1212.73 267 1040.2 267C867.662 267 695.128 267 522.594 267C350.061 267 177.527 267 91.2598 267H4.99292V93Z" fill="#FF0066"/>
</svg>
