<svg width="900" height="164" viewBox="0 0 900 164" fill="none" xmlns="http://www.w3.org/2000/svg">
<path d="M0 9L30 11.8C60 14.7 120 20.3 180 20.5C240 20.7 300 15.3 360 14C420 12.7 480 15.3 540 16.7C600 18 660 18 720 15C780 12 840 6 870 3L900 0V164H870C840 164 780 164 720 164C660 164 600 164 540 164C480 164 420 164 360 164C300 164 240 164 180 164C120 164 60 164 30 164H0V9Z" fill="#1F2433" fill-opacity="0.65"/>
<path d="M0 49.7267L30 45.0267C60 40.4267 120 31.0267 180 29.0267C287 49.7267 300 32.4267 360 32.5267C420 32.7267 480 27.7267 540 26.4267C600 25.0267 660 27.4267 720 28.5267C780 29.7267 840 29.7267 870 29.7267H900V157.727H870C840 157.727 780 157.727 720 157.727C660 157.727 600 157.727 540 157.727C480 157.727 420 157.727 360 157.727C300 157.727 240 157.727 180 157.727C120 157.727 60 157.727 30 157.727H0V49.7267Z" fill="#1F2433" fill-opacity="0.77"/>
<path d="M0 56L30 58.5C60 61 120 66 180 68C240 70 284 55.3 344 56C404 56.6 480 72.7 540 70.7C600 68.7 660 62.3 720 62.2C780 62 840 68 870 71L900 74V127H870C840 127 780 127 720 127C660 127 600 127 540 127C480 127 420 127 360 127C300 127 240 127 180 127C120 127 60 127 30 127H0V56Z" fill="#F41580" fill-opacity="0.91"/>
<path d="M0 61H30C60 61 120 61 180 70.2436C240 79.4872 300 97.9744 360 106.426C420 114.613 480 113.028 540 105.897C600 98.7667 660 86.618 720 81.3359C780 76.0539 840 77.6385 870 78.6949L900 79.4872V164H870C840 164 780 164 720 164C660 164 600 164 540 164C480 164 420 164 360 164C300 164 240 164 180 164C120 164 60 164 30 164H0V61Z" fill="#FF0066"/>
</svg>
