<svg width="900" height="164" viewBox="0 0 900 164" fill="none" xmlns="http://www.w3.org/2000/svg">
<path d="M0 9L30 11.8C60 14.7 120 20.3 180 20.5C240 20.7 300 15.3 360 14C420 12.7 480 15.3 540 16.7C600 18 660 18 720 15C780 12 840 6 870 3L900 0V164H870C840 164 780 164 720 164C660 164 600 164 540 164C480 164 420 164 360 164C300 164 240 164 180 164C120 164 60 164 30 164H0V9Z" fill="#1F2433"/>
<path d="M0 49.7267L30 45.0267C60 40.4267 120 31.0267 180 29.0267C287 49.7267 300 32.4267 360 32.5267C420 32.7267 480 27.7267 540 26.4267C600 25.0267 660 27.4267 720 28.5267C780 29.7267 840 29.7267 870 29.7267H900V157.727H870C840 157.727 780 157.727 720 157.727C660 157.727 600 157.727 540 157.727C480 157.727 420 157.727 360 157.727C300 157.727 240 157.727 180 157.727C120 157.727 60 157.727 30 157.727H0V49.7267Z" fill="#232939" fill-opacity="0.81"/>
<path d="M0 82L30 84.5C60 87 120 92 180 94C240 96 300 95 360 95.7C420 96.3 480 98.7 540 96.7C600 94.7 660 88.3 720 88.2C780 88 840 94 870 97L900 100V153H870C840 153 780 153 720 153C660 153 600 153 540 153C480 153 420 153 360 153C300 153 240 153 180 153C120 153 60 153 30 153H0V82Z" fill="#B82182"/>
<path d="M0 125H30C60 125 120 125 180 128.5C240 132 300 139 360 142.2C420 145.3 480 144.7 540 142C600 139.3 660 134.7 720 132.7C780 130.7 840 131.3 870 131.7L900 132V164H870C840 164 780 164 720 164C660 164 600 164 540 164C480 164 420 164 360 164C300 164 240 164 180 164C120 164 60 164 30 164H0V125Z" fill="#FF0066"/>
</svg>
