<svg width="2588" height="594" viewBox="0 0 2588 594" fill="none" xmlns="http://www.w3.org/2000/svg">
<path d="M0 27.8232L86.2667 36.4792C172.533 45.4445 345.067 62.7567 517.6 63.375C690.133 63.9933 862.667 47.2994 1035.2 43.2805C1207.73 39.2616 1380.27 47.2994 1552.8 51.6275C1725.33 55.6464 1897.87 55.6463 2070.4 46.372C2242.93 37.0976 2415.47 18.5488 2501.73 9.27439L2588 0V507H2501.73C2415.47 507 2242.93 507 2070.4 507C1897.87 507 1725.33 507 1552.8 507C1380.27 507 1207.73 507 1035.2 507C862.667 507 690.133 507 517.6 507C345.067 507 172.533 507 86.2667 507H0V27.8232Z" fill="#242A3A" fill-opacity="0.79"/>
<path d="M6 137.29L92.0667 122.376C178.133 107.779 350.267 77.9509 522.4 71.6044C829.371 137.29 866.667 82.3934 1038.8 82.7108C1210.93 83.3454 1383.07 67.4793 1555.2 63.3541C1727.33 58.9116 1899.47 66.5273 2071.6 70.0178C2243.73 73.8257 2415.87 73.8257 2501.93 73.8257H2588V480H2501.93C2415.87 480 2243.73 480 2071.6 480C1899.47 480 1727.33 480 1555.2 480C1383.07 480 1210.93 480 1038.8 480C866.667 480 694.533 480 522.4 480C350.267 480 178.133 480 92.0667 480H6V137.29Z" fill="#222839" fill-opacity="0.77"/>
<path d="M0 85.1018L86.2667 95.5912C172.533 106.081 345.067 127.059 517.6 135.451C690.133 143.842 816.658 82.1647 989.191 85.1018C1161.72 87.6192 1380.27 155.171 1552.8 146.779C1725.33 138.388 1897.87 111.535 2070.4 111.116C2242.93 110.276 2415.47 135.451 2501.73 148.038L2588 160.625V383H2501.73C2415.47 383 2242.93 383 2070.4 383C1897.87 383 1725.33 383 1552.8 383C1380.27 383 1207.73 383 1035.2 383C862.667 383 690.133 383 517.6 383C345.067 383 172.533 383 86.2667 383H0V85.1018Z" fill="#F41580" fill-opacity="0.91"/>
<path d="M0 93H86.2667C172.533 93 345.067 93 517.6 137.962C690.133 182.923 862.667 272.846 1035.2 313.954C1207.73 353.777 1380.27 346.069 1552.8 311.385C1725.33 276.7 1897.87 217.608 2070.4 191.916C2242.93 166.223 2415.47 173.931 2501.73 179.069L2588 182.923V594H2501.73C2415.47 594 2242.93 594 2070.4 594C1897.87 594 1725.33 594 1552.8 594C1380.27 594 1207.73 594 1035.2 594C862.667 594 690.133 594 517.6 594C345.067 594 172.533 594 86.2667 594H0V93Z" fill="#FF0066"/>
</svg>
