<svg width="5185" height="316" viewBox="0 0 5185 316" fill="none" xmlns="http://www.w3.org/2000/svg">
<path d="M0 41.2614L123.864 78.3121C247.728 74.0886 422.932 68.189 742.031 29.858C989.183 35.7708 1209.78 104.037 1456.93 103.615C1703.51 102.77 1976.06 32.8144 2222.64 23.5227C2469.79 14.6534 2771.27 99.8214 3018.43 98.5543C3265 97.2873 3687 37.4602 3933.58 29.858C4200.28 29.8579 4195.82 70.2874 4442.97 78.3121C4689.54 85.9143 4937.27 -11.5321 5061.14 1.1383L5185 49.7084V282H5061.14C4937.27 282 4689.54 282 4442.97 282C4195.82 282 3950.39 282 3703.24 282C3456.67 282 3208.94 282 2962.36 282C2715.21 282 2469.79 282 2222.64 282C1976.06 282 1728.33 282 1481.76 282C1234.61 282 989.183 282 742.031 282C495.456 282 247.728 282 123.864 282H0V41.2614Z" fill="#FF0066"/>
<path d="M0 118L123.864 160.75C271.867 160.75 495.456 178.87 742.031 187.17C989.183 195.588 1189.88 205.758 1437.03 196.406C1683.61 187.053 1976.06 153.365 2222.64 146C2469.79 138.518 2829.83 176.532 3076.98 187.17C3327.94 187.17 3456.67 192.197 3703.24 187.17C3950.39 182.026 4222.52 139.246 4469.67 141C4716.25 142.754 4937.27 196.289 5061.14 209.616H5185V316H5061.14C4937.27 316 4689.54 316 4442.97 316C4195.82 316 3950.39 316 3703.24 316C3456.67 316 3208.94 316 2962.36 316C2715.21 316 2469.79 316 2222.64 316C1976.06 316 1728.33 316 1481.76 316C1234.61 316 989.183 316 742.031 316C495.456 316 247.728 316 123.864 316H0V118Z" fill="#F41580"/>
</svg>
