<svg width="2774" height="231" viewBox="0 0 2774 231" fill="none" xmlns="http://www.w3.org/2000/svg">
<path d="M0 11.5244L92.4667 15.1097C184.933 18.8232 369.867 25.9939 554.8 26.25C739.733 26.5061 924.667 19.5915 1109.6 17.9268C1294.53 16.2622 1479.47 19.5915 1664.4 21.3842C1849.33 23.0488 2034.27 23.0488 2219.2 19.2073C2404.13 15.3659 2589.07 7.68293 2681.53 3.84146L2774 0V210H2681.53C2589.07 210 2404.13 210 2219.2 210C2034.27 210 1849.33 210 1664.4 210C1479.47 210 1294.53 210 1109.6 210C924.667 210 739.733 210 554.8 210C369.867 210 184.933 210 92.4667 210H0V11.5244Z" fill="#212A42" fill-opacity="0.84"/>
<path d="M6 85.7759L98.2667 81.0662C190.533 76.4566 375.067 67.0371 559.6 65.033C888.684 85.7759 928.667 68.44 1113.2 68.5402C1297.73 68.7407 1482.27 63.7303 1666.8 62.4276C1851.33 61.0247 2035.87 63.4297 2220.4 64.5319C2404.93 65.7344 2589.47 65.7344 2681.73 65.7344H2774V194H2681.73C2589.47 194 2404.93 194 2220.4 194C2035.87 194 1851.33 194 1666.8 194C1482.27 194 1297.73 194 1113.2 194C928.667 194 744.133 194 559.6 194C375.067 194 190.533 194 98.2667 194H6V85.7759Z" fill="#1F2433" fill-opacity="0.77"/>
<path d="M0 109.024L92.4667 111.523C184.933 114.023 369.867 119.021 554.8 121.02C739.733 123.019 875.351 108.324 1060.28 109.024C1245.22 109.624 1479.47 125.719 1664.4 123.719C1849.33 121.72 2034.27 115.322 2219.2 115.222C2404.13 115.022 2589.07 121.02 2681.53 124.019L2774 127.018V180H2681.53C2589.07 180 2404.13 180 2219.2 180C2034.27 180 1849.33 180 1664.4 180C1479.47 180 1294.53 180 1109.6 180C924.667 180 739.733 180 554.8 180C369.867 180 184.933 180 92.4667 180H0V109.024Z" fill="#F41580" fill-opacity="0.91"/>
<path d="M0 128H92.4667C184.933 128 369.867 128 554.8 137.244C739.733 146.487 924.667 164.974 1109.6 173.426C1294.53 181.613 1479.47 180.028 1664.4 172.897C1849.33 165.767 2034.27 153.618 2219.2 148.336C2404.13 143.054 2589.07 144.638 2681.53 145.695L2774 146.487V231H2681.53C2589.07 231 2404.13 231 2219.2 231C2034.27 231 1849.33 231 1664.4 231C1479.47 231 1294.53 231 1109.6 231C924.667 231 739.733 231 554.8 231C369.867 231 184.933 231 92.4667 231H0V128Z" fill="#FF0066"/>
</svg>
