<svg width="62" height="59" viewBox="0 0 62 59" fill="none" xmlns="http://www.w3.org/2000/svg">
<g filter="url(#filter0_d_26_52)">
<path d="M51.5714 0H10.4286C6.88 0 4 2.72 4 6.07143V44.9286C4 48.28 6.88 51 10.4286 51H51.5714C55.12 51 58 48.28 58 44.9286V6.07143C58 2.72 55.12 0 51.5714 0ZM16.8571 19.4286C18.9874 19.4286 20.7143 21.1555 20.7143 23.2857V38.6429C20.7143 40.7731 18.9874 42.5 16.8571 42.5V42.5C14.7269 42.5 13 40.7731 13 38.6429V23.2857C13 21.1555 14.7269 19.4286 16.8571 19.4286V19.4286ZM13 12.7136C13 11.0136 14.5429 9.71429 16.8571 9.71429C19.1714 9.71429 20.6243 11.0136 20.7143 12.7136C20.7143 14.4136 19.2743 15.7857 16.8571 15.7857C14.5429 15.7857 13 14.4136 13 12.7136ZM49 38.6428C49 40.7731 47.2731 42.5 45.1429 42.5V42.5C43.0126 42.5 41.2857 40.7752 41.2857 38.6449C41.2857 35.2986 41.2857 30.905 41.2857 30.3571C41.2857 27.9286 40 25.5 36.7857 25.4514H36.6829C33.5714 25.4514 32.2857 27.9529 32.2857 30.3571C32.2857 31.0269 32.2857 35.3464 32.2857 38.6448C32.2857 40.7751 30.5588 42.5 28.4286 42.5V42.5C26.2983 42.5 24.5714 40.7731 24.5714 38.6429V23.2857C24.5714 21.1555 26.2983 19.4286 28.4286 19.4286H31.4795C31.9248 19.4286 32.2857 19.7895 32.2857 20.2348V20.2348C32.2857 20.9974 33.3947 21.4683 34.0357 21.0554C35.2783 20.2548 37.1838 19.4286 39.7557 19.4286C44.86 19.4286 49 22.7436 49 29.4586V38.6428Z" fill="white"/>
<path d="M21.2143 12.7136V12.7003L21.2136 12.6871C21.1059 10.6527 19.3623 9.21429 16.8571 9.21429C14.3791 9.21429 12.5 10.6371 12.5 12.7136C12.5 14.7764 14.3622 16.2857 16.8571 16.2857C18.1587 16.2857 19.2441 15.9157 20.0135 15.2702C20.7873 14.621 21.2143 13.7135 21.2143 12.7136ZM10.4286 0.5H51.5714C54.8712 0.5 57.5 3.02268 57.5 6.07143V44.9286C57.5 47.9773 54.8712 50.5 51.5714 50.5H10.4286C7.12883 50.5 4.5 47.9773 4.5 44.9286V6.07143C4.5 3.02268 7.12883 0.5 10.4286 0.5ZM21.2143 38.6429V23.2857C21.2143 20.8793 19.2635 18.9286 16.8571 18.9286C14.4508 18.9286 12.5 20.8793 12.5 23.2857V38.6429C12.5 41.0492 14.4508 43 16.8571 43C19.2635 43 21.2143 41.0492 21.2143 38.6429ZM40.7857 30.3571V30.3604V30.3637V30.3672V30.3707V30.3743V30.378V30.3818V30.3856V30.3896V30.3936V30.3977V30.4019V30.4062V30.4106V30.4151V30.4196V30.4243V30.429V30.4338V30.4387V30.4436V30.4487V30.4538V30.459V30.4643V30.4697V30.4752V30.4807V30.4864V30.4921V30.4979V30.5037V30.5097V30.5157V30.5218V30.528V30.5343V30.5407V30.5471V30.5536V30.5602V30.5669V30.5737V30.5805V30.5874V30.5944V30.6015V30.6086V30.6158V30.6231V30.6305V30.6379V30.6455V30.6531V30.6608V30.6685V30.6764V30.6843V30.6923V30.7003V30.7085V30.7167V30.7249V30.7333V30.7417V30.7502V30.7588V30.7675V30.7762V30.785V30.7939V30.8028V30.8118V30.8209V30.8301V30.8393V30.8486V30.858V30.8674V30.877V30.8865V30.8962V30.9059V30.9157V30.9256V30.9355V30.9455V30.9556V30.9658V30.976V30.9862V30.9966V31.007V31.0175V31.028V31.0387V31.0494V31.0601V31.0709V31.0818V31.0928V31.1038V31.1149V31.126V31.1372V31.1485V31.1598V31.1713V31.1827V31.1943V31.2059V31.2175V31.2293V31.2411V31.2529V31.2648V31.2768V31.2889V31.301V31.3131V31.3254V31.3376V31.35V31.3624V31.3749V31.3874V31.4V31.4127V31.4254V31.4382V31.451V31.4639V31.4768V31.4898V31.5029V31.516V31.5292V31.5425V31.5558V31.5691V31.5826V31.596V31.6096V31.6232V31.6368V31.6505V31.6643V31.6781V31.6919V31.7059V31.7199V31.7339V31.748V31.7621V31.7763V31.7906V31.8049V31.8192V31.8337V31.8481V31.8626V31.8772V31.8918V31.9065V31.9213V31.936V31.9509V31.9658V31.9807V31.9957V32.0107V32.0258V32.0409V32.0561V32.0714V32.0867V32.102V32.1174V32.1328V32.1483V32.1639V32.1794V32.1951V32.2107V32.2265V32.2422V32.2581V32.2739V32.2899V32.3058V32.3218V32.3379V32.354V32.3701V32.3863V32.4026V32.4188V32.4352V32.4515V32.468V32.4844V32.5009V32.5175V32.5341V32.5507V32.5674V32.5841V32.6009V32.6177V32.6345V32.6514V32.6684V32.6853V32.7024V32.7194V32.7365V32.7537V32.7708V32.7881V32.8053V32.8226V32.84V32.8574V32.8748V32.8922V32.9097V32.9273V32.9448V32.9625V32.9801V32.9978V33.0155V33.0333V33.0511V33.0689V33.0868V33.1047V33.1227V33.1406V33.1586V33.1767V33.1948V33.2129V33.2311V33.2493V33.2675V33.2858V33.3041V33.3224V33.3408V33.3591V33.3776V33.396V33.4145V33.4331V33.4516V33.4702V33.4888V33.5075V33.5262V33.5449V33.5636V33.5824V33.6012V33.6201V33.639V33.6579V33.6768V33.6957V33.7147V33.7337V33.7528V33.7719V33.791V33.8101V33.8293V33.8484V33.8677V33.8869V33.9062V33.9255V33.9448V33.9641V33.9835V34.0029V34.0223V34.0418V34.0613V34.0808V34.1003V34.1198V34.1394V34.159V34.1786V34.1983V34.218V34.2377V34.2574V34.2771V34.2969V34.3167V34.3365V34.3563V34.3761V34.396V34.4159V34.4358V34.4558V34.4757V34.4957V34.5157V34.5357V34.5557V34.5758V34.5959V34.616V34.6361V34.6562V34.6764V34.6965V34.7167V34.7369V34.7572V34.7774V34.7976V34.8179V34.8382V34.8585V34.8788V34.8992V34.9195V34.9399V34.9603V34.9807V35.0011V35.0215V35.042V35.0624V35.0829V35.1034V35.1239V35.1444V35.165V35.1855V35.206V35.2266V35.2472V35.2678V35.2884V35.309V35.3296V35.3503V35.3709V35.3916V35.4122V35.4329V35.4536V35.4743V35.495V35.5157V35.5365V35.5572V35.578V35.5987V35.6195V35.6402V35.661V35.6818V35.7026V35.7234V35.7442V35.765V35.7859V35.8067V35.8275V35.8484V35.8692V35.8901V35.9109V35.9318V35.9527V35.9735V35.9944V36.0153V36.0362V36.0571V36.078V36.0989V36.1197V36.1407V36.1616V36.1825V36.2034V36.2243V36.2452V36.2661V36.287V36.3079V36.3289V36.3498V36.3707V36.3916V36.4125V36.4335V36.4544V36.4753V36.4962V36.5171V36.5381V36.559V36.5799V36.6008V36.6217V36.6426V36.6635V36.6844V36.7053V36.7262V36.7471V36.768V36.7889V36.8098V36.8306V36.8515V36.8724V36.8932V36.9141V36.935V36.9558V36.9766V36.9975V37.0183V37.0391V37.0599V37.0807V37.1015V37.1223V37.1431V37.1639V37.1847V37.2054V37.2262V37.2469V37.2677V37.2884V37.3091V37.3298V37.3505V37.3712V37.3919V37.4126V37.4332V37.4539V37.4745V37.4951V37.5157V37.5363V37.5569V37.5775V37.5981V37.6186V37.6392V37.6597V37.6802V37.7007V37.7212V37.7416V37.7621V37.7825V37.803V37.8234V37.8438V37.8642V37.8845V37.9049V37.9252V37.9455V37.9659V37.9861V38.0064V38.0267V38.0469V38.0671V38.0873V38.1075V38.1277V38.1478V38.1679V38.1881V38.2081V38.2282V38.2483V38.2683V38.2883V38.3083V38.3283V38.3482V38.3682V38.3881V38.408V38.4278V38.4477V38.4675V38.4873V38.5071V38.5268V38.5466V38.5663V38.586V38.6057V38.6253V38.6449C40.7857 41.0516 42.7368 43 45.1429 43C47.5492 43 49.5 41.0492 49.5 38.6428V29.4586C49.5 25.9958 48.43 23.3511 46.645 21.5714C44.8623 19.7939 42.4159 18.9286 39.7557 18.9286C37.0711 18.9286 35.073 19.7923 33.7649 20.635C33.6252 20.725 33.3755 20.7429 33.1262 20.6302C32.8757 20.5171 32.7857 20.3511 32.7857 20.2348C32.7857 19.5134 32.2009 18.9286 31.4795 18.9286H28.4286C26.0222 18.9286 24.0714 20.8793 24.0714 23.2857V38.6429C24.0714 41.0492 26.0222 43 28.4286 43C30.8346 43 32.7857 41.0516 32.7857 38.6448V38.6255V38.6061V38.5868V38.5673V38.5479V38.5285V38.509V38.4895V38.47V38.4504V38.4309V38.4113V38.3917V38.3721V38.3524V38.3328V38.3131V38.2934V38.2736V38.2539V38.2341V38.2144V38.1946V38.1747V38.1549V38.1351V38.1152V38.0953V38.0754V38.0555V38.0355V38.0156V37.9956V37.9756V37.9556V37.9356V37.9155V37.8955V37.8754V37.8553V37.8352V37.8151V37.7949V37.7748V37.7546V37.7345V37.7143V37.6941V37.6739V37.6536V37.6334V37.6131V37.5929V37.5726V37.5523V37.532V37.5117V37.4914V37.471V37.4507V37.4303V37.41V37.3896V37.3692V37.3488V37.3284V37.308V37.2875V37.2671V37.2466V37.2262V37.2057V37.1852V37.1648V37.1443V37.1238V37.1033V37.0828V37.0623V37.0417V37.0212V37.0007V36.9801V36.9596V36.939V36.9184V36.8979V36.8773V36.8567V36.8361V36.8156V36.795V36.7744V36.7538V36.7332V36.7126V36.692V36.6713V36.6507V36.6301V36.6095V36.5889V36.5682V36.5476V36.527V36.5064V36.4857V36.4651V36.4445V36.4238V36.4032V36.3826V36.3619V36.3413V36.3206V36.3V36.2794V36.2588V36.2381V36.2175V36.1969V36.1762V36.1556V36.135V36.1144V36.0938V36.0732V36.0525V36.0319V36.0113V35.9907V35.9701V35.9496V35.929V35.9084V35.8878V35.8672V35.8467V35.8261V35.8056V35.785V35.7645V35.7439V35.7234V35.7029V35.6824V35.6618V35.6413V35.6208V35.6004V35.5799V35.5594V35.5389V35.5185V35.498V35.4776V35.4572V35.4368V35.4164V35.396V35.3756V35.3552V35.3348V35.3145V35.2941V35.2738V35.2535V35.2332V35.2129V35.1926V35.1723V35.152V35.1318V35.1115V35.0913V35.0711V35.0509V35.0307V35.0105V34.9904V34.9702V34.9501V34.93V34.9099V34.8898V34.8697V34.8497V34.8296V34.8096V34.7896V34.7696V34.7497V34.7297V34.7098V34.6898V34.6699V34.65V34.6302V34.6103V34.5905V34.5707V34.5509V34.5311V34.5113V34.4916V34.4719V34.4522V34.4325V34.4128V34.3932V34.3736V34.354V34.3344V34.3148V34.2953V34.2758V34.2563V34.2368V34.2174V34.1979V34.1785V34.1592V34.1398V34.1205V34.1012V34.0819V34.0626V34.0434V34.0242V34.005V33.9858V33.9667V33.9475V33.9284V33.9094V33.8903V33.8713V33.8523V33.8334V33.8144V33.7955V33.7766V33.7578V33.739V33.7202V33.7014V33.6827V33.6639V33.6452V33.6266V33.608V33.5894V33.5708V33.5522V33.5337V33.5153V33.4968V33.4784V33.46V33.4416V33.4233V33.405V33.3867V33.3685V33.3503V33.3321V33.314V33.2959V33.2778V33.2598V33.2417V33.2238V33.2058V33.1879V33.17V33.1522V33.1344V33.1166V33.0989V33.0812V33.0635V33.0459V33.0283V33.0107V32.9932V32.9757V32.9582V32.9408V32.9235V32.9061V32.8888V32.8715V32.8543V32.8371V32.82V32.8028V32.7858V32.7687V32.7517V32.7348V32.7178V32.701V32.6841V32.6673V32.6506V32.6338V32.6171V32.6005V32.5839V32.5673V32.5508V32.5344V32.5179V32.5015V32.4852V32.4689V32.4526V32.4364V32.4202V32.4041V32.388V32.3719V32.3559V32.34V32.324V32.3082V32.2923V32.2766V32.2608V32.2451V32.2295V32.2139V32.1983V32.1828V32.1673V32.1519V32.1366V32.1212V32.106V32.0907V32.0756V32.0604V32.0453V32.0303V32.0153V32.0004V31.9855V31.9706V31.9559V31.9411V31.9264V31.9118V31.8972V31.8826V31.8682V31.8537V31.8393V31.825V31.8107V31.7965V31.7823V31.7681V31.7541V31.74V31.7261V31.7121V31.6983V31.6845V31.6707V31.657V31.6433V31.6297V31.6162V31.6027V31.5893V31.5759V31.5626V31.5493V31.5361V31.5229V31.5098V31.4968V31.4838V31.4708V31.4579V31.4451V31.4324V31.4197V31.407V31.3944V31.3819V31.3694V31.357V31.3446V31.3323V31.3201V31.3079V31.2958V31.2837V31.2717V31.2598V31.2479V31.2361V31.2243V31.2126V31.201V31.1894V31.1779V31.1665V31.1551V31.1437V31.1325V31.1213V31.1101V31.0991V31.088V31.0771V31.0662V31.0554V31.0446V31.0339V31.0233V31.0127V31.0022V30.9918V30.9814V30.9711V30.9609V30.9507V30.9406V30.9306V30.9206V30.9107V30.9009V30.8911V30.8814V30.8717V30.8622V30.8527V30.8432V30.8339V30.8246V30.8154V30.8062V30.7971V30.7881V30.7792V30.7703V30.7615V30.7527V30.7441V30.7355V30.7269V30.7185V30.7101V30.7018V30.6936V30.6854V30.6773V30.6693V30.6613V30.6534V30.6456V30.6379V30.6303V30.6227V30.6152V30.6077V30.6004V30.5931V30.5859V30.5787V30.5717V30.5647V30.5578V30.5509V30.5442V30.5375V30.5309V30.5244V30.5179V30.5115V30.5052V30.499V30.4929V30.4868V30.4808V30.4749V30.4691V30.4633V30.4577V30.4521V30.4466V30.4411V30.4358V30.4305V30.4253V30.4202V30.4151V30.4102V30.4053V30.4005V30.3958V30.3912V30.3867V30.3822V30.3778V30.3735V30.3693V30.3652V30.3611V30.3571C32.7857 29.2353 33.087 28.1246 33.7142 27.307C34.3279 26.5072 35.2792 25.9514 36.6829 25.9514H36.7819C38.2477 25.9745 39.2257 26.5319 39.8485 27.3215C40.4846 28.1278 40.7857 29.2231 40.7857 30.3571Z" stroke="black"/>
</g>
<defs>
<filter id="filter0_d_26_52" x="0" y="0" width="62" height="59" filterUnits="userSpaceOnUse" color-interpolation-filters="sRGB">
<feFlood flood-opacity="0" result="BackgroundImageFix"/>
<feColorMatrix in="SourceAlpha" type="matrix" values="0 0 0 0 0 0 0 0 0 0 0 0 0 0 0 0 0 0 127 0" result="hardAlpha"/>
<feOffset dy="4"/>
<feGaussianBlur stdDeviation="2"/>
<feComposite in2="hardAlpha" operator="out"/>
<feColorMatrix type="matrix" values="0 0 0 0 0 0 0 0 0 0 0 0 0 0 0 0 0 0 0.25 0"/>
<feBlend mode="normal" in2="BackgroundImageFix" result="effect1_dropShadow_26_52"/>
<feBlend mode="normal" in="SourceGraphic" in2="effect1_dropShadow_26_52" result="shape"/>
</filter>
</defs>
</svg>
