<svg width="26" height="26" viewBox="0 0 26 26" fill="none" xmlns="http://www.w3.org/2000/svg">
<path d="M25.2228 16.6875C25.1419 16.6256 25.044 16.59 24.9422 16.5854C24.8405 16.5807 24.7397 16.6072 24.6534 16.6614C22.5459 17.8238 20.1082 18.2423 17.7336 17.8496C15.359 17.4568 13.186 16.2757 11.5649 14.4966C9.94377 12.7176 8.96918 10.4444 8.79828 8.0436C8.62738 5.64283 9.27012 3.25447 10.6229 1.26373C10.701 1.18213 10.7492 1.07647 10.7596 0.963971C10.77 0.851471 10.742 0.738763 10.6801 0.644215C10.6183 0.549667 10.5263 0.478852 10.419 0.443311C10.3118 0.407769 10.1956 0.409597 10.0896 0.448494C7.96512 1.00778 6.02087 2.10566 4.44477 3.63603C2.86868 5.16639 1.71403 7.07748 1.09245 9.18455C0.470871 11.2916 0.40338 13.5234 0.8965 15.6642C1.38962 17.805 2.42668 19.7823 3.90742 21.4051C5.38816 23.0279 7.26251 24.2413 9.34929 24.9279C11.4361 25.6146 13.6647 25.7513 15.8197 25.3248C17.9748 24.8983 19.9834 23.9231 21.6513 22.4934C23.3193 21.0637 24.5902 19.2279 25.3412 17.1634C25.364 17.0806 25.3651 16.9933 25.3444 16.9099C25.3236 16.8266 25.2818 16.75 25.2228 16.6875Z" fill="#73758C"/>
</svg>
