<svg width="44" height="40" viewBox="0 0 44 40" fill="none" xmlns="http://www.w3.org/2000/svg">
<path fill-rule="evenodd" clip-rule="evenodd" d="M22 0C9.84701 0 0 9.17795 0 20.5052C0 29.563 6.30209 37.2525 15.0462 39.9625C16.1491 40.1494 16.5501 39.5219 16.5501 38.9746C16.5501 38.4873 16.5286 37.1991 16.5215 35.4903C10.3984 36.7252 9.10938 32.7403 9.10938 32.7403C8.10677 30.3707 6.66732 29.7366 6.66732 29.7366C4.66927 28.4683 6.81771 28.495 6.81771 28.495C9.02344 28.6419 10.1836 30.6043 10.1836 30.6043C12.1458 33.7415 15.3327 32.8337 16.5859 32.3131C16.7865 30.9848 17.3594 30.0837 17.9824 29.5697C13.0983 29.0557 7.96354 27.2936 7.96354 19.4372C7.96354 17.1945 8.82292 15.3656 10.2266 13.9305C10.0046 13.4165 9.24544 11.3273 10.4414 8.50379C10.4414 8.50379 12.2891 7.95645 16.4928 10.6064C18.2474 10.1525 20.1309 9.92554 22 9.91887C23.8691 9.92554 25.7526 10.1525 27.5072 10.6064C31.7109 7.95645 33.5514 8.50379 33.5514 8.50379C34.7546 11.3273 34.0026 13.4165 33.7734 13.9305C35.1842 15.3656 36.0293 17.1945 36.0293 19.4372C36.0293 27.3136 30.8874 29.0424 25.9889 29.5564C26.7767 30.1838 27.4785 31.4387 27.4785 33.3477C27.4785 36.0911 27.457 38.3004 27.457 38.9746C27.457 39.5219 27.8509 40.1627 28.9681 39.9625C37.7051 37.2458 44 29.563 44 20.5052C44 9.17795 34.153 0 22 0Z" fill="white"/>
</svg>
